<?xml version="1.0" standalone="no"?><!DOCTYPE svg PUBLIC "-//W3C//DTD SVG 1.1//EN" "http://www.w3.org/Graphics/SVG/1.1/DTD/svg11.dtd"><svg t="1722844523707" class="icon" viewBox="0 0 1024 1024" version="1.1" xmlns="http://www.w3.org/2000/svg" p-id="17886" width="256" height="256" xmlns:xlink="http://www.w3.org/1999/xlink"><path d="M512 0C229.2 0 0 229.2 0 512s229.2 512 512 512 512-229.2 512-512C1023.7 229.3 794.6 0.3 512 0zM306 226.4c33.6 28.6 80.2 70.2 102 97.6l-52.9 52.2c-19.9-27.3-65.2-71.5-98.2-103.2l49.1-46.6z m10.5 564.4c-5-17.4-22.4-48.5-34.2-62.8 13.7-9.3 34.8-30.5 34.8-58.4V481.8h-90.7V411h162.2v238.7l83.3-53.5c3.1 21.1 13 52.2 20.5 67.8-138.6 93.8-162.2 111.8-175.9 126.8zM797.6 342H696.9v363c0 42.9-9.3 64.6-37.3 77.7-28 13-69 14.9-127.4 14.9-3.1-22.4-17.4-59-29.2-80.2 39.1 3.1 85.2 2.5 97.6 1.9 12.4-0.6 17.4-4.4 17.4-15.5V342H453.3v-74.6h344.3V342z" fill="#1296db" p-id="17887"></path></svg>